<svg xmlns="http://www.w3.org/2000/svg" viewBox="0 0 20.64 20.64"><defs><style>.cls-1{fill:#1d1d1b;}</style></defs><title>Fichier 2</title><g id="Calque_2" data-name="Calque 2"><g id="Layer_1" data-name="Layer 1"><path class="cls-1" d="M16.05,0H4.59A4.58,4.58,0,0,0,0,4.59V16.05a4.59,4.59,0,0,0,4.59,4.59H11v-8H8.34V9.53H11V7.23a3.75,3.75,0,0,1,4-4.11,21.43,21.43,0,0,1,2.4.12V6H15.8c-1.3,0-1.55.62-1.55,1.52v2h3.1L17,12.65H14.23v8h1.82a4.6,4.6,0,0,0,4.59-4.59V4.59A4.59,4.59,0,0,0,16.05,0Z"/></g></g></svg>