<svg xmlns="http://www.w3.org/2000/svg" viewBox="0 0 20.62 20.62"><defs><style>.cls-1{fill:#1d1d1b;}</style></defs><title>Fichier 7</title><g id="Calque_2" data-name="Calque 2"><g id="Layer_1" data-name="Layer 1"><path class="cls-1" d="M17.19,4.58a1.15,1.15,0,1,1,1.14-1.14A1.15,1.15,0,0,1,17.19,4.58ZM10.31,16A5.73,5.73,0,1,1,16,10.31,5.73,5.73,0,0,1,10.31,16ZM14.9,0H5.73A5.72,5.72,0,0,0,0,5.73V14.9a5.72,5.72,0,0,0,5.73,5.72H14.9a5.72,5.72,0,0,0,5.72-5.72V5.73A5.72,5.72,0,0,0,14.9,0Z"/><circle class="cls-1" cx="10.31" cy="10.31" r="3.44"/></g></g></svg>